<svg width="46" height="38" viewBox="0 0 46 38" fill="none" xmlns="http://www.w3.org/2000/svg">
<g clip-path="url(#clip0_9_2)">
<mask id="mask0_9_2" style="mask-type:luminance" maskUnits="userSpaceOnUse" x="0" y="0" width="46" height="38">
<path d="M46 0H0V38H46V0Z" fill="white"/>
</mask>
<g mask="url(#mask0_9_2)">
<mask id="mask1_9_2" style="mask-type:luminance" maskUnits="userSpaceOnUse" x="0" y="0" width="46" height="38">
<path d="M46 0H0V38H46V0Z" fill="white"/>
</mask>
<g mask="url(#mask1_9_2)">
<path d="M16.7683 24.2101C15.3413 27.1725 14.0582 29.5933 12.9172 31.4702L16.2611 35.2352L14.3346 37.402C12.0349 34.6935 8.92209 31.2701 4.99991 27.1342C4.61304 29.5551 4.33076 31.2251 4.15509 32.1468C3.82149 34.0438 3.47014 35.7049 3.10101 37.1322H0C0.477688 35.561 1.05012 33.2031 1.72125 30.061C2.16341 28.0199 2.51674 26.3228 2.78124 24.9676C2.05681 24.1921 1.46464 23.6234 1.00669 23.2615L2.99639 21.1756C6.04608 24.0482 8.66547 26.7296 10.8585 29.2225L13.0791 25.0236L11.1269 23.3987L12.8127 21.1509L16.7703 24.2123L16.7683 24.2101Z" fill="#231F20"/>
<path d="M30.9707 24.3448C30.9707 24.8327 30.8364 25.6463 30.5699 26.7838C29.6088 30.9015 27.2815 34.4056 23.5823 37.2964L22.0092 34.9923C24.7548 32.8255 26.636 30.1687 27.6526 27.0264C27.7768 26.6467 27.84 26.26 27.84 25.8621C27.84 25.5002 27.7451 25.1722 27.5577 24.8732C27.3702 24.5741 27.1058 24.4258 26.7661 24.4258H20.4616C20.2424 24.4258 20.1082 24.3742 20.0569 24.2684C20.0332 24.2212 20.0332 24.174 20.0332 24.1561C20.0332 22.0859 20.051 21.6296 20.051 21.6296C20.0747 21.0407 20.1299 19.7303 19.4272 19.0088C19.2437 18.8222 19.0541 18.7189 18.9219 18.6603C19.3523 18.4468 19.7845 18.2356 20.2149 18.022C20.5208 18.0985 20.8998 18.166 21.334 18.1749C21.8432 18.1883 22.2814 18.1232 22.6231 18.0422C22.9072 18.2626 23.1933 18.4828 23.4776 18.7031C23.3296 18.7661 23.2172 18.8492 23.1304 18.9346C22.3584 19.6899 22.8106 21.4049 22.8363 21.4993H29.05C29.4331 21.4993 29.7666 21.5959 30.0489 21.7892C30.3015 21.9623 30.4496 22.1646 30.5146 22.259C31.0615 23.0232 30.9925 24.0729 30.9687 24.3448H30.9707Z" fill="#231F20"/>
<path d="M46 34.3698C46 35.9589 45.2855 36.8244 43.8544 36.9705L33.6176 38L33.4045 35.1273L42.0166 34.2596C42.7469 34.1879 43.114 33.8439 43.114 33.2304V26.7545C43.114 25.9229 42.8456 25.4172 42.3087 25.2375L39.5413 24.2618H39.3261C38.8249 24.2618 38.4477 24.4889 38.1971 24.9385L37.3366 26.5096C37.2121 26.7455 37.1491 26.9793 37.1491 27.2132C37.1491 27.539 37.2734 27.7818 37.524 27.9436L39.1328 29.0271L37.6838 31.439L34.2572 29.1147C33.9374 28.8989 33.7796 28.4742 33.7796 27.8447C33.7796 27.3953 33.8783 26.9974 34.0737 26.6556L37.1293 21.169C37.3956 20.7014 37.7136 20.4655 38.0865 20.4655C38.1932 20.4655 40.4395 21.2589 44.8255 22.8458C45.1827 22.9717 45.467 23.2481 45.6822 23.6707C45.8954 24.0955 46.002 24.5226 46.002 24.9541V34.3654L46 34.3698Z" fill="#231F20"/>
<path fill-rule="evenodd" clip-rule="evenodd" d="M26.7426 -0.162842L26.9625 1.49223C27.1465 2.87691 27.3299 4.26101 27.5133 5.64501L27.5156 5.66225C27.67 6.82645 27.8242 7.99057 27.9788 9.15501L35.414 5.00897L34.417 6.60413C33.7595 7.65616 33.1095 8.69703 32.4595 9.738C31.9745 10.5147 31.4894 11.2914 31.0011 12.0729L39.7148 12.1718L38.0786 13.0931C37.0144 13.6922 35.95 14.2907 34.8855 14.8891L34.8819 14.8912C33.9775 15.3997 33.0731 15.9082 32.169 16.417C32.221 16.4942 32.273 16.5714 32.325 16.6486C32.8428 17.417 33.3615 18.1867 33.8789 18.9563L34.8002 20.327L33.3804 19.7238C31.9218 19.1042 29.6795 18.3865 26.9039 18.3975C25.1059 18.4041 23.5713 18.7157 22.3911 19.0648L22.1719 18.1032C23.4078 17.7377 25.0159 17.4109 26.9009 17.404C29.0495 17.3956 30.8925 17.8036 32.3241 18.2786C32.0937 17.9368 31.8634 17.5949 31.633 17.2532C31.4732 17.0161 31.3136 16.779 31.1539 16.5422L30.8307 16.0624L31.3066 15.7944C32.3706 15.1952 33.4352 14.5967 34.4995 13.9983L34.5066 13.9944C35.0227 13.7042 35.5389 13.4141 36.0549 13.1238L29.3217 13.0474L29.8063 12.2721C30.4496 11.2427 31.0993 10.2023 31.7491 9.1617C32.0697 8.64829 32.3903 8.13487 32.7103 7.62275L27.2945 10.6427L27.2056 9.9732C27.0214 8.58644 26.8376 7.20025 26.6538 5.81415L26.6516 5.79722C26.5411 4.96359 26.4306 4.12997 26.3201 3.29626C25.3503 5.72602 24.3802 8.15589 23.4086 10.5858L23.11 11.3326L22.6677 10.6849C21.92 9.59003 21.1728 8.49572 20.4256 7.40147C19.7988 6.48366 19.1722 5.56589 18.5453 4.64785L18.3611 11.5459L11.5666 8.17885L14.3326 13.2183L7.45168 13.144C7.82516 13.3407 8.19867 13.5376 8.57221 13.7344L8.5746 13.7357C9.56024 14.2551 10.546 14.7745 11.5314 15.2945L12.1968 15.6457L9.60263 17.841C10.9028 17.5633 12.405 17.3541 14.0732 17.3164C16.587 17.2593 18.7295 17.6088 20.366 18.0108L20.1822 18.982C18.5973 18.5928 16.5235 18.2544 14.0906 18.3098C11.549 18.3673 9.40519 18.836 7.79525 19.3269L5.58932 19.9995L10.4992 15.8448C10.7211 15.9618 10.9429 16.0788 11.1648 16.1959L10.4992 15.8448C9.73503 15.4418 8.97062 15.0389 8.20614 14.6362L8.20433 14.6352C7.2185 14.1157 6.23252 13.5962 5.24701 13.0761L3.41035 12.1068L12.7495 12.2077L9.33714 5.9906L17.5287 10.05L17.7471 1.86137L18.4904 2.94958C19.3662 4.23207 20.2415 5.514 21.1169 6.79595C21.7158 7.67291 22.3146 8.5499 22.9137 9.42711C22.8142 9.67605 22.7145 9.92501 22.6151 10.174L22.9137 9.42711L23.356 10.0749C23.2086 9.85892 23.0611 9.64301 22.9137 9.42711C23.9858 6.74481 25.0563 4.06247 26.1268 1.37998L26.7426 -0.162842Z" fill="#231F20"/>
<path fill-rule="evenodd" clip-rule="evenodd" d="M26.1159 5.14508L26.1899 5.76261C26.4148 7.64109 26.6378 9.52159 26.8608 11.4021C27.5241 11.0455 28.1881 10.6895 28.8521 10.3334C29.3679 10.0569 29.8837 9.78028 30.3994 9.50338L30.9058 9.23149L30.6075 9.77113C30.2414 10.4337 29.8757 11.0967 29.5099 11.7599L29.5072 11.7647C29.1922 12.3359 28.8772 12.9071 28.5617 13.478L34.1152 13.5723L33.5021 13.9143C33.0446 14.1695 32.5868 14.425 32.1289 14.6807C31.374 15.102 30.6187 15.5236 29.8634 15.9445L31.086 17.4578L30.7 17.4464C26.8743 17.3343 24.9591 17.7122 23.9288 18.1236C23.9207 18.1269 23.9122 18.1303 23.903 18.134C23.687 18.2214 23.1575 18.4358 22.4313 18.5353C21.123 18.7149 20.011 18.4084 19.5141 18.2681H19.5138C18.9793 18.1158 18.5801 17.9437 18.4187 17.8742C18.3957 17.8643 18.3776 17.8564 18.3646 17.851L18.3636 17.8506C17.3727 17.4316 15.4772 17.0286 11.5255 17.1878L10.9714 17.2102L13.0342 15.5712C12.7428 15.4176 12.4515 15.264 12.1601 15.1106C11.4687 14.7462 10.7778 14.3821 10.0869 14.0171L9.39981 13.6542L10.1572 13.6618C11.0366 13.6709 11.9161 13.6804 12.7954 13.69H12.7957C13.5771 13.6985 14.3586 13.7069 15.1399 13.7151C14.8308 13.1346 14.5217 12.5545 14.2126 11.9744L14.2094 11.9685C13.8498 11.2938 13.4903 10.6191 13.1307 9.9438L12.8728 9.45957L13.3327 9.6749C14.3047 10.1301 15.2752 10.5843 16.2456 11.0385C17.1254 11.4502 18.0051 11.8619 18.886 12.2744C18.9084 11.437 18.9314 10.5957 18.9543 9.75447C18.9793 8.83387 19.0043 7.91333 19.0288 6.99815L19.0419 6.50601L19.318 6.88484C20.0303 7.86219 20.7431 8.84014 21.4559 9.81805C22.028 10.6029 22.6001 11.3878 23.1718 12.1723C24.0745 10.0187 24.9774 7.86317 25.8804 5.70757L26.1159 5.14508ZM25.9397 6.43066C25.0788 8.48635 24.2177 10.5419 23.3568 12.5955L23.2467 12.8582L23.0835 12.6342C22.4591 11.7775 21.8342 10.9202 21.2093 10.0628C20.5869 9.20898 19.9646 8.35505 19.3425 7.50158C19.3222 8.25808 19.3017 9.01223 19.2811 9.76633C19.2559 10.6944 19.2305 11.6224 19.2056 12.5546L19.1985 12.8235L18.9801 12.7212C18.0277 12.2752 17.0749 11.8293 16.122 11.3834C15.3039 11.0005 14.486 10.6177 13.6682 10.2348C13.9421 10.7491 14.2161 11.2631 14.49 11.7771L14.4924 11.7816C14.8521 12.4568 15.2119 13.132 15.5717 13.8078L15.7239 14.0936L15.4305 14.0906C14.5516 14.0817 13.6727 14.0721 12.7939 14.0625H12.7923C12.1656 14.0556 11.539 14.0489 10.9124 14.0424C11.3739 14.2857 11.8355 14.529 12.2974 14.7724C12.6747 14.9712 13.0522 15.1701 13.43 15.3693L13.6884 15.5057L12.0638 16.7965C15.6629 16.6938 17.4762 17.0781 18.4768 17.5011C18.477 17.5013 18.4771 17.5013 18.4774 17.5014L18.4205 17.676L18.4763 17.5009C18.4764 17.501 18.4765 17.501 18.4768 17.5011C18.4911 17.5071 18.5103 17.5153 18.5341 17.5256C18.6977 17.5961 19.0788 17.7602 19.5928 17.9065L19.5535 18.0873L19.5931 17.9067C20.0833 18.045 21.1464 18.3364 22.3922 18.1654C23.0821 18.0709 23.5839 17.8677 23.7946 17.7825C23.8036 17.779 23.812 17.7756 23.8199 17.7724L23.8203 17.7721C24.869 17.3534 26.7353 16.987 30.3237 17.0642L29.326 15.8291L29.5229 15.7195C30.344 15.262 31.1649 14.8038 31.9856 14.3458C32.2388 14.2043 32.4921 14.063 32.7454 13.9216L27.9749 13.8407L28.13 13.5601C28.4962 12.8976 28.8619 12.2345 29.2277 11.5713L29.2303 11.5665C29.4978 11.0816 29.7652 10.5967 30.0328 10.112C29.6857 10.2982 29.3385 10.4844 28.9915 10.6705C28.2601 11.0627 27.529 11.4547 26.7984 11.8475L26.5964 11.9561L26.5665 11.704C26.3581 9.9456 26.1498 8.18732 25.9397 6.43066Z" fill="#231F20"/>
<path fill-rule="evenodd" clip-rule="evenodd" d="M7.42824 8.05927L7.48485 8.11812C7.7571 8.40119 8.02989 8.68371 8.3028 8.96639L8.30312 8.96673C8.57589 9.24926 8.84879 9.53192 9.1212 9.81515L9.66751 10.3832L8.96195 10.1304C8.33 9.90409 7.69412 9.67594 7.05827 9.4478C6.42951 9.2222 5.8008 8.99662 5.17598 8.77282L4.48082 8.52381L5.20273 8.41059C5.56086 8.35442 5.91902 8.29767 6.27731 8.24092C6.63552 8.18417 6.99396 8.12738 7.35233 8.07116L7.42824 8.05927ZM5.96782 8.66606C6.36465 8.80834 6.76073 8.95045 7.15679 9.09255C7.55515 9.23549 7.95351 9.37842 8.35258 9.5215C8.26269 9.42836 8.17275 9.33521 8.08282 9.24205L8.08267 9.24191C7.82874 8.97889 7.57469 8.71576 7.32103 8.45215C6.98819 8.50443 6.65532 8.55716 6.32234 8.60991L6.3222 8.60994C6.20409 8.62865 6.08597 8.64736 5.96782 8.66606Z" fill="#231F20"/>
<path fill-rule="evenodd" clip-rule="evenodd" d="M34.1018 1.24536L33.6539 1.7049C33.0992 2.2741 32.5441 2.84373 31.989 3.41336C31.4458 3.97087 30.9025 4.52838 30.3596 5.08548L29.5275 5.9393L30.1106 4.85008C30.3772 4.35215 30.6441 3.85421 30.9111 3.35635L30.9133 3.35218C31.1795 2.85568 31.4457 2.35926 31.7114 1.86286L31.7485 1.79343L31.8549 1.76887C32.4073 1.64129 32.9595 1.51374 33.5115 1.38406L34.1018 1.24536ZM31.9534 2.12624C31.7 2.59968 31.4461 3.07311 31.1923 3.54648L31.1902 3.55056C31.1181 3.6849 31.0461 3.81923 30.974 3.95357C31.2389 3.68177 31.5039 3.40989 31.7688 3.13803C32.1753 2.72082 32.5818 2.3036 32.9882 1.88666C32.6432 1.96692 32.2982 2.04661 31.9534 2.12624Z" fill="#231F20"/>
<path fill-rule="evenodd" clip-rule="evenodd" d="M37.7708 16.4697L37.2027 16.9276C36.8182 17.2375 36.4336 17.5474 36.0492 17.8573L35.9557 17.9327L35.8617 17.8582C35.4294 17.5168 34.9954 17.1753 34.5632 16.8359L34.1357 16.5002L34.6548 16.4963C35.0949 16.4929 35.5271 16.4889 35.9593 16.485C36.387 16.481 36.8147 16.4772 37.2504 16.4738L37.7708 16.4697ZM35.1756 16.8645C35.435 17.0685 35.6947 17.2731 35.9539 17.4778C36.2132 17.2688 36.4726 17.0597 36.732 16.8506C36.4767 16.8529 36.2196 16.8551 35.9625 16.8575C35.6996 16.8598 35.4366 16.8622 35.1756 16.8645Z" fill="#231F20"/>
</g>
</g>
</g>
<defs>
<clipPath id="clip0_9_2">
<rect width="46" height="38" fill="white"/>
</clipPath>
</defs>
</svg>
